<?xml version="1.0" encoding="UTF-8" standalone="no"?>
<!-- Created with Inkscape (http://www.inkscape.org/) -->

<svg
   xmlns:dc="http://purl.org/dc/elements/1.1/"
   xmlns:cc="http://creativecommons.org/ns#"
   xmlns:rdf="http://www.w3.org/1999/02/22-rdf-syntax-ns#"
   xmlns:svg="http://www.w3.org/2000/svg"
   xmlns="http://www.w3.org/2000/svg"
   xmlns:sodipodi="http://sodipodi.sourceforge.net/DTD/sodipodi-0.dtd"
   xmlns:inkscape="http://www.inkscape.org/namespaces/inkscape"
   width="210mm"
   height="297mm"
   viewBox="0 0 210 297"
   version="1.1"
   id="svg8"
   sodipodi:docname="aetla.svg"
   inkscape:version="0.92.4 (5da689c313, 2019-01-14)">
  <defs
     id="defs2" />
  <sodipodi:namedview
     id="base"
     pagecolor="#ffffff"
     bordercolor="#666666"
     borderopacity="1.0"
     inkscape:pageopacity="0.0"
     inkscape:pageshadow="2"
     inkscape:zoom="0.7"
     inkscape:cx="-173.08738"
     inkscape:cy="306.22651"
     inkscape:document-units="mm"
     inkscape:current-layer="layer1"
     showgrid="false"
     inkscape:window-width="1536"
     inkscape:window-height="801"
     inkscape:window-x="-8"
     inkscape:window-y="-8"
     inkscape:window-maximized="1" />
  <metadata
     id="metadata5">
    <rdf:RDF>
      <cc:Work
         rdf:about="">
        <dc:format>image/svg+xml</dc:format>
        <dc:type
           rdf:resource="http://purl.org/dc/dcmitype/StillImage" />
      </cc:Work>
    </rdf:RDF>
  </metadata>
  <g
     inkscape:label="Layer 1"
     inkscape:groupmode="layer"
     id="layer1">
    <g
       id="g4665"
       transform="translate(5.2160714,-4.5357143)">
      <path
         d="m 203.39211,152.80809 a 46.371262,46.371262 0 0 1 -45.84906,46.36832 46.371262,46.371262 0 0 1 -46.88171,-45.32397 46.371262,46.371262 0 0 1 44.79314,-47.38915 46.371262,46.371262 0 0 1 47.89058,44.25662"
         sodipodi:open="true"
         sodipodi:end="6.2381384"
         sodipodi:start="0"
         sodipodi:ry="46.371262"
         sodipodi:rx="46.371262"
         sodipodi:cy="152.80809"
         sodipodi:cx="157.02084"
         sodipodi:type="arc"
         id="path4554"
         style="opacity:0.98999999;fill:#d5bda4;fill-opacity:1;stroke:none;stroke-width:0.69999999;stroke-linecap:round;stroke-linejoin:round;stroke-miterlimit:4;stroke-dasharray:none;stroke-dashoffset:0;stroke-opacity:1;paint-order:normal" />
      <path
         inkscape:connector-curvature="0"
         d="m 177.24304,122.31075 c -11.22055,7.83215 -18.60279,5.03838 -18.60279,5.03838 0,0 9.60584,37.11661 -2.72965,52.21739 0,0 20.75398,-14.91195 29.9433,-6.75257 m -27.21365,-45.46482 c 0,0 -5.63646,37.05643 -25.123,46.6889 -19.48656,9.63248 -9.0887,-23.57205 12.45881,-16.52721 10.33277,3.37824 27.03009,-4.0413 30.6952,-7.945"
         style="fill:none;stroke:#544e54;stroke-width:3.39100003;stroke-linecap:round;stroke-linejoin:round;stroke-miterlimit:4;stroke-dasharray:none;stroke-opacity:1;paint-order:normal"
         id="path4520-4" />
    </g>
    <path
       id="path4520-4-4"
       style="fill:none;stroke:#544e54;stroke-width:1.39100003;stroke-linecap:round;stroke-linejoin:round;stroke-miterlimit:4;stroke-dasharray:none;stroke-opacity:1;paint-order:normal"
       d="M 79.921938,3.9426148 C 64.624444,14.620549 54.559892,10.811672 54.559892,10.811672 c 0,0 13.096087,50.602805 -3.721461,71.190401 0,0 28.294877,-20.330154 40.823107,-9.206089 M 54.559892,10.811672 c 0,0 -7.684452,50.52076 -34.251361,63.653157 C -6.2584059,87.597243 7.9174816,42.327951 37.294208,51.932511 c 14.087147,4.605713 36.851383,-5.509694 41.8482,-10.83179"
       inkscape:connector-curvature="0" />
    <path
       id="path4520-4-4-8"
       style="fill:none;stroke:#d5bda4;stroke-width:1.39100003;stroke-linecap:round;stroke-linejoin:round;stroke-miterlimit:4;stroke-dasharray:none;stroke-opacity:1;paint-order:normal"
       d="m 78.969501,92.797671 c -15.29749,10.677949 -25.362045,6.86906 -25.362045,6.86906 0,0 13.096085,50.602819 -3.72146,71.190409 0,0 28.294875,-20.33015 40.823106,-9.20609 M 53.607456,99.666731 c 0,0 -7.684453,50.520769 -34.251361,63.653169 -26.5669381,13.13241 -12.3910501,-32.13688 16.985676,-22.53232 14.087147,4.60571 36.85138,-5.5097 41.8482,-10.83179"
       inkscape:connector-curvature="0" />
    <g
       id="g4661"
       transform="translate(-1.9654762,0.37797619)">
      <path
         d="M 210.41302,46.402 A 46.371262,46.371262 0 0 1 164.56397,92.770322 46.371262,46.371262 0 0 1 117.68226,47.446353 46.371262,46.371262 0 0 1 162.4754,0.05720128 46.371262,46.371262 0 0 1 210.36598,44.313825"
         sodipodi:open="true"
         sodipodi:end="6.2381384"
         sodipodi:start="0"
         sodipodi:ry="46.371262"
         sodipodi:rx="46.371262"
         sodipodi:cy="46.402"
         sodipodi:cx="164.04176"
         sodipodi:type="arc"
         id="path4554-4"
         style="opacity:0.98999999;fill:#544e54;fill-opacity:1;stroke:none;stroke-width:0.69999999;stroke-linecap:round;stroke-linejoin:round;stroke-miterlimit:4;stroke-dasharray:none;stroke-dashoffset:0;stroke-opacity:1;paint-order:normal" />
      <path
         inkscape:connector-curvature="0"
         d="m 185.47347,16.282636 c -11.22055,7.83215 -18.60279,5.03838 -18.60279,5.03838 0,0 9.60584,37.116611 -2.72965,52.21739 0,0 20.75398,-14.911951 29.9433,-6.752569 M 166.87068,21.321016 c 0,0 -5.63646,37.056429 -25.123,46.6889 -19.48656,9.632479 -9.0887,-23.572049 12.45881,-16.527211 10.33277,3.37824 27.03009,-4.041299 30.6952,-7.944998"
         style="fill:none;stroke:#d5bda4;stroke-width:3.39100027;stroke-linecap:round;stroke-linejoin:round;stroke-miterlimit:4;stroke-dasharray:none;stroke-opacity:1;paint-order:normal"
         id="path4520-4-9" />
    </g>
    <g
       id="g4669"
       transform="translate(43.391666,5.6696424)">
      <path
         d="m 165.05578,244.83929 a 46.371262,46.371262 0 0 1 -45.84905,46.36833 46.371262,46.371262 0 0 1 -46.881713,-45.32397 46.371262,46.371262 0 0 1 44.793133,-47.38915 46.371262,46.371262 0 0 1 47.89059,44.25662"
         sodipodi:open="true"
         sodipodi:end="6.2381384"
         sodipodi:start="0"
         sodipodi:ry="46.371262"
         sodipodi:rx="46.371262"
         sodipodi:cy="244.83929"
         sodipodi:cx="118.68452"
         sodipodi:type="arc"
         id="path4554-4-3"
         style="opacity:0.98999999;fill:#544e54;fill-opacity:1;stroke:none;stroke-width:0.69999999;stroke-linecap:round;stroke-linejoin:round;stroke-miterlimit:4;stroke-dasharray:none;stroke-dashoffset:0;stroke-opacity:1;paint-order:normal" />
      <path
         inkscape:connector-curvature="0"
         d="m 140.11623,214.71993 c -11.22055,7.83215 -18.60279,5.03838 -18.60279,5.03838 0,0 9.60584,37.11661 -2.72965,52.21739 0,0 20.75398,-14.91195 29.9433,-6.75257 m -27.21365,-45.46482 c 0,0 -5.63646,37.05643 -25.122999,46.6889 -19.48656,9.63248 -9.088701,-23.57205 12.458809,-16.52721 10.33277,3.37824 27.03009,-4.0413 30.6952,-7.945"
         style="fill:none;stroke:#fbfbfb;stroke-width:3.39100051;stroke-linecap:round;stroke-linejoin:round;stroke-miterlimit:4;stroke-dasharray:none;stroke-opacity:1;paint-order:normal"
         id="path4520-4-9-7" />
    </g>
    <g
       id="g5937">
      <path
         inkscape:connector-curvature="0"
         d="m 49.0237,184.81689 c -4.367897,3.04887 -7.241631,1.96132 -7.241631,1.96132 0,0 3.739328,14.44863 -1.062589,20.32701 0,0 8.079043,-5.80487 11.656231,-2.62862 M 41.782069,186.77821 c 0,0 -2.194143,14.4252 -9.779799,18.1749 -7.585664,3.7497 -3.538019,-9.17604 4.849924,-6.43366 4.022306,1.31507 10.522184,-1.57319 11.948927,-3.0928"
         style="fill:none;stroke:#544e54;stroke-width:0.367;stroke-linecap:butt;stroke-linejoin:round;stroke-miterlimit:4;stroke-dasharray:none;stroke-opacity:1;paint-order:normal"
         id="path4520-4-4-2" />
      <text
         id="text5349"
         y="204.84959"
         x="52.88829"
         style="font-style:normal;font-weight:normal;font-size:8.57076168px;line-height:1.25;font-family:sans-serif;letter-spacing:0px;word-spacing:0px;fill:#544e54;fill-opacity:0.99215686;stroke:none;stroke-width:0.1;stroke-miterlimit:4;stroke-dasharray:none"
         xml:space="preserve"><tspan
           style="font-style:normal;font-variant:normal;font-weight:normal;font-stretch:normal;font-size:18.28429222px;line-height:1.25;font-family:'Poppins Thin';-inkscape-font-specification:'Poppins Thin, ';fill:#544e54;fill-opacity:0.99215686;stroke-width:0.1;stroke-miterlimit:4;stroke-dasharray:none"
           y="204.84959"
           x="52.88829"
           id="tspan5347"
           sodipodi:role="line">tla</tspan></text>
    </g>
    <flowRoot
       xml:space="preserve"
       id="flowRoot5351"
       style="fill:black;fill-opacity:1;stroke:none;font-family:sans-serif;font-style:normal;font-weight:normal;font-size:40px;line-height:1.25;letter-spacing:0px;word-spacing:0px"><flowRegion
         id="flowRegion5353"><rect
           id="rect5355"
           width="13.131983"
           height="62.124382"
           x="296.98486"
           y="714.92316" /></flowRegion><flowPara
         id="flowPara5357"></flowPara></flowRoot>    <flowRoot
       xml:space="preserve"
       id="flowRoot5359"
       style="font-style:normal;font-weight:normal;font-size:40px;line-height:1.25;font-family:sans-serif;letter-spacing:0px;word-spacing:0px;fill:#000000;fill-opacity:1;stroke:none"
       transform="matrix(0.26458333,0,0,0.26458333,10.016369,-18.142857)"><flowRegion
         id="flowRegion5361"><rect
           id="rect5363"
           width="191.42857"
           height="73.571426"
           x="98.571426"
           y="888.23395" /></flowRegion><flowPara
         id="flowPara5365"
         style="font-style:normal;font-variant:normal;font-weight:normal;font-stretch:normal;font-family:'Poppins Thin';-inkscape-font-specification:'Poppins Thin, '">Aetla</flowPara></flowRoot>    <flowRoot
       xml:space="preserve"
       id="flowRoot5367"
       style="fill:black;fill-opacity:1;stroke:none;font-family:sans-serif;font-style:normal;font-weight:normal;font-size:40px;line-height:1.25;letter-spacing:0px;word-spacing:0px"><flowRegion
         id="flowRegion5369"><rect
           id="rect5371"
           width="226.42857"
           height="192.85715"
           x="37.142857"
           y="740.37683" /></flowRegion><flowPara
         id="flowPara5373"></flowPara></flowRoot>  </g>
</svg>
