<svg width="556" height="138" viewBox="0 0 556 138" fill="none" xmlns="http://www.w3.org/2000/svg">
<path d="M0.672001 106V3.472H12.48V95.92H63.888V106H0.672001ZM93.5408 106V3.472H158.341V13.264H105.205V48.976H155.461V58.912H105.205V96.208H158.341V106H93.5408ZM243.104 137.104V53.872C243.104 50.512 243.008 47.152 242.816 43.792C242.72 40.336 242.432 36.928 241.952 33.568H253.04L254.336 48.544L253.184 50.704C254.816 44.656 257.936 40 262.544 36.736C267.152 33.472 272.72 31.84 279.248 31.84C285.584 31.84 291.152 33.424 295.952 36.592C300.848 39.76 304.64 44.176 307.328 49.84C310.112 55.504 311.504 62.128 311.504 69.712C311.504 77.296 310.112 83.92 307.328 89.584C304.64 95.152 300.896 99.472 296.096 102.544C291.296 105.52 285.68 107.008 279.248 107.008C272.72 107.008 267.152 105.376 262.544 102.112C257.936 98.848 254.816 94.192 253.184 88.144L254.768 86.704V137.104H243.104ZM277.088 97.36C284.096 97.36 289.568 94.96 293.504 90.16C297.44 85.36 299.408 78.544 299.408 69.712C299.408 60.88 297.44 54.016 293.504 49.12C289.568 44.128 284.096 41.632 277.088 41.632C269.888 41.632 264.368 44.032 260.528 48.832C256.688 53.632 254.768 60.496 254.768 69.424C254.768 78.352 256.688 85.264 260.528 90.16C264.368 94.96 269.888 97.36 277.088 97.36ZM343.848 106V0.0159912H355.512V106H343.848ZM420.352 107.008C413.92 107.008 408.256 105.52 403.36 102.544C398.56 99.472 394.816 95.152 392.128 89.584C389.536 83.92 388.24 77.296 388.24 69.712C388.24 62.128 389.584 55.504 392.272 49.84C394.96 44.176 398.704 39.76 403.504 36.592C408.4 33.424 414.016 31.84 420.352 31.84C426.976 31.84 432.592 33.472 437.2 36.736C441.808 40 444.928 44.656 446.56 50.704L444.832 51.856V33.568H456.352V106H444.832V87.28L446.56 88.144C444.928 94.192 441.808 98.848 437.2 102.112C432.592 105.376 426.976 107.008 420.352 107.008ZM422.656 97.36C429.76 97.36 435.232 94.96 439.072 90.16C442.912 85.264 444.832 78.352 444.832 69.424C444.832 60.496 442.864 53.632 438.928 48.832C435.088 44.032 429.664 41.632 422.656 41.632C415.552 41.632 409.984 44.128 405.952 49.12C402.016 54.016 400.048 60.88 400.048 69.712C400.048 78.544 402.016 85.36 405.952 90.16C409.984 94.96 415.552 97.36 422.656 97.36ZM493.304 106V53.872C493.304 50.512 493.208 47.152 493.016 43.792C492.92 40.336 492.632 36.928 492.152 33.568H503.24L504.536 48.544L503.096 49.696C505.112 43.84 508.472 39.424 513.176 36.448C517.88 33.376 523.304 31.84 529.448 31.84C546.824 31.84 555.512 41.392 555.512 60.496V106H543.848V61.072C543.848 54.352 542.504 49.456 539.816 46.384C537.128 43.216 532.904 41.632 527.144 41.632C520.424 41.632 515.048 43.696 511.016 47.824C506.984 51.952 504.968 57.52 504.968 64.528V106H493.304Z" fill="#D5BDA4"/>
</svg>
